<svg width="69" height="9" viewBox="0 0 69 9" fill="none" xmlns="http://www.w3.org/2000/svg">
<path d="M0.71733 8V0.727273H2.00284V3.44744H2.05611C2.1224 3.31487 2.21591 3.17401 2.33665 3.02486C2.45739 2.87334 2.62074 2.74432 2.8267 2.63778C3.03267 2.52888 3.29545 2.47443 3.61506 2.47443C4.03646 2.47443 4.41643 2.58215 4.75497 2.79759C5.09588 3.01065 5.36577 3.3267 5.56463 3.74574C5.76586 4.16241 5.86648 4.67377 5.86648 5.27983C5.86648 5.87879 5.76823 6.38778 5.57173 6.80682C5.37524 7.22585 5.10772 7.54545 4.76918 7.76562C4.43063 7.9858 4.04711 8.09588 3.61861 8.09588C3.30611 8.09588 3.04688 8.0438 2.84091 7.93963C2.63494 7.83546 2.46922 7.70999 2.34375 7.56321C2.22064 7.41406 2.12476 7.2732 2.05611 7.14062H1.98153V8H0.71733ZM1.97798 5.27273C1.97798 5.62547 2.0277 5.93442 2.12713 6.19957C2.22893 6.46473 2.37453 6.67187 2.56392 6.82102C2.75568 6.9678 2.98769 7.04119 3.25994 7.04119C3.54403 7.04119 3.78196 6.96544 3.97372 6.81392C4.16548 6.66004 4.3099 6.45052 4.40696 6.18537C4.50639 5.91785 4.55611 5.61364 4.55611 5.27273C4.55611 4.93419 4.50758 4.63352 4.41051 4.37074C4.31345 4.10795 4.16903 3.90199 3.97727 3.75284C3.78551 3.60369 3.5464 3.52912 3.25994 3.52912C2.98532 3.52912 2.75213 3.60133 2.56037 3.74574C2.36861 3.89015 2.22301 4.09257 2.12358 4.35298C2.02652 4.6134 1.97798 4.91998 1.97798 5.27273ZM9.3386 8.10653C8.80593 8.10653 8.34428 7.98935 7.95366 7.75497C7.56303 7.5206 7.26 7.19271 7.04457 6.77131C6.8315 6.34991 6.72496 5.85748 6.72496 5.29403C6.72496 4.73059 6.8315 4.23698 7.04457 3.81321C7.26 3.38944 7.56303 3.06037 7.95366 2.82599C8.34428 2.59162 8.80593 2.47443 9.3386 2.47443C9.87127 2.47443 10.3329 2.59162 10.7235 2.82599C11.1142 3.06037 11.416 3.38944 11.6291 3.81321C11.8445 4.23698 11.9522 4.73059 11.9522 5.29403C11.9522 5.85748 11.8445 6.34991 11.6291 6.77131C11.416 7.19271 11.1142 7.5206 10.7235 7.75497C10.3329 7.98935 9.87127 8.10653 9.3386 8.10653ZM9.3457 7.0767C9.63453 7.0767 9.87601 6.9974 10.0701 6.83878C10.2643 6.67779 10.4087 6.46236 10.5034 6.19247C10.6004 5.92259 10.649 5.62192 10.649 5.29048C10.649 4.95668 10.6004 4.65483 10.5034 4.38494C10.4087 4.11269 10.2643 3.89607 10.0701 3.73509C9.87601 3.5741 9.63453 3.49361 9.3457 3.49361C9.04978 3.49361 8.80356 3.5741 8.60707 3.73509C8.41294 3.89607 8.26734 4.11269 8.17028 4.38494C8.07558 4.65483 8.02823 4.95668 8.02823 5.29048C8.02823 5.62192 8.07558 5.92259 8.17028 6.19247C8.26734 6.46236 8.41294 6.67779 8.60707 6.83878C8.80356 6.9974 9.04978 7.0767 9.3457 7.0767ZM15.4226 8.10653C14.8899 8.10653 14.4283 7.98935 14.0376 7.75497C13.647 7.5206 13.344 7.19271 13.1286 6.77131C12.9155 6.34991 12.8089 5.85748 12.8089 5.29403C12.8089 4.73059 12.9155 4.23698 13.1286 3.81321C13.344 3.38944 13.647 3.06037 14.0376 2.82599C14.4283 2.59162 14.8899 2.47443 15.4226 2.47443C15.9553 2.47443 16.4169 2.59162 16.8075 2.82599C17.1982 3.06037 17.5 3.38944 17.7131 3.81321C17.9285 4.23698 18.0362 4.73059 18.0362 5.29403C18.0362 5.85748 17.9285 6.34991 17.7131 6.77131C17.5 7.19271 17.1982 7.5206 16.8075 7.75497C16.4169 7.98935 15.9553 8.10653 15.4226 8.10653ZM15.4297 7.0767C15.7185 7.0767 15.96 6.9974 16.1541 6.83878C16.3482 6.67779 16.4927 6.46236 16.5874 6.19247C16.6844 5.92259 16.733 5.62192 16.733 5.29048C16.733 4.95668 16.6844 4.65483 16.5874 4.38494C16.4927 4.11269 16.3482 3.89607 16.1541 3.73509C15.96 3.5741 15.7185 3.49361 15.4297 3.49361C15.1338 3.49361 14.8875 3.5741 14.6911 3.73509C14.4969 3.89607 14.3513 4.11269 14.2543 4.38494C14.1596 4.65483 14.1122 4.95668 14.1122 5.29048C14.1122 5.62192 14.1596 5.92259 14.2543 6.19247C14.3513 6.46236 14.4969 6.67779 14.6911 6.83878C14.8875 6.9974 15.1338 7.0767 15.4297 7.0767ZM20.2992 6.28835L20.2956 4.73651H20.5016L22.4618 2.54545H23.964L21.5527 5.23011H21.2864L20.2992 6.28835ZM19.1273 8V0.727273H20.4128V8H19.1273ZM22.5506 8L20.775 5.51776L21.6415 4.61222L24.0882 8H22.5506ZM24.8207 8V2.54545H26.0494V3.4723H26.1133C26.2269 3.1598 26.4151 2.91596 26.6779 2.74077C26.9407 2.56321 27.2544 2.47443 27.619 2.47443C27.9883 2.47443 28.2996 2.56439 28.5529 2.74432C28.8086 2.92187 28.9885 3.16454 29.0927 3.4723H29.1495C29.2702 3.16927 29.4738 2.92779 29.7603 2.74787C30.0491 2.56558 30.3912 2.47443 30.7866 2.47443C31.2885 2.47443 31.698 2.63305 32.0153 2.95028C32.3325 3.26752 32.4911 3.73035 32.4911 4.33878V8H31.2021V4.53764C31.2021 4.1991 31.1121 3.9517 30.9322 3.79545C30.7522 3.63684 30.5321 3.55753 30.2717 3.55753C29.9615 3.55753 29.7189 3.65459 29.5437 3.84872C29.3709 4.04048 29.2844 4.29025 29.2844 4.59801V8H28.0238V4.48438C28.0238 4.20265 27.9386 3.97775 27.7681 3.80966C27.6 3.64157 27.3799 3.55753 27.1076 3.55753C26.9229 3.55753 26.7549 3.60488 26.6033 3.69957C26.4518 3.7919 26.3311 3.9233 26.2411 4.09375C26.1512 4.26184 26.1062 4.45833 26.1062 4.68324V8H24.8207ZM35.3649 8.11009C35.0192 8.11009 34.7079 8.04853 34.4309 7.92543C34.1563 7.79995 33.9385 7.61529 33.7775 7.37145C33.6189 7.1276 33.5396 6.82694 33.5396 6.46946C33.5396 6.1617 33.5964 5.9072 33.71 5.70597C33.8237 5.50473 33.9788 5.34375 34.1752 5.22301C34.3717 5.10227 34.5931 5.01113 34.8393 4.94957C35.0879 4.88565 35.3448 4.83949 35.6099 4.81108C35.9295 4.77794 36.1887 4.74834 36.3876 4.7223C36.5865 4.69389 36.7309 4.65128 36.8208 4.59446C36.9132 4.53527 36.9593 4.44413 36.9593 4.32102V4.29972C36.9593 4.0322 36.88 3.82505 36.7214 3.67827C36.5628 3.53149 36.3343 3.4581 36.036 3.4581C35.7212 3.4581 35.4714 3.52675 35.2868 3.66406C35.1045 3.80137 34.9814 3.96354 34.9174 4.15057L33.7172 3.98011C33.8118 3.64867 33.9681 3.37169 34.1859 3.14915C34.4037 2.92424 34.67 2.75616 34.9849 2.64489C35.2998 2.53125 35.6478 2.47443 36.0289 2.47443C36.2917 2.47443 36.5533 2.50521 36.8137 2.56676C37.0742 2.62831 37.3121 2.73011 37.5275 2.87216C37.743 3.01184 37.9158 3.20241 38.046 3.44389C38.1786 3.68537 38.2449 3.98722 38.2449 4.34943V8H37.0091V7.25071H36.9664C36.8883 7.40223 36.7782 7.54427 36.6362 7.67685C36.4965 7.80705 36.3201 7.91241 36.1071 7.9929C35.8964 8.07102 35.649 8.11009 35.3649 8.11009ZM35.6987 7.16548C35.9567 7.16548 36.1805 7.11458 36.3699 7.01278C36.5592 6.90862 36.7048 6.77131 36.8066 6.60085C36.9108 6.4304 36.9629 6.24455 36.9629 6.04332V5.40057C36.9226 5.43371 36.854 5.46449 36.7569 5.4929C36.6622 5.52131 36.5557 5.54616 36.4373 5.56747C36.319 5.58878 36.2018 5.60772 36.0858 5.62429C35.9698 5.64086 35.8691 5.65507 35.7839 5.6669C35.5922 5.69294 35.4205 5.73556 35.269 5.79474C35.1175 5.85393 34.9979 5.93679 34.9103 6.04332C34.8227 6.14749 34.7789 6.28243 34.7789 6.44815C34.7789 6.6849 34.8654 6.86364 35.0382 6.98438C35.211 7.10511 35.4312 7.16548 35.6987 7.16548ZM39.5375 8V2.54545H40.7839V3.45455H40.8407C40.9402 3.13968 41.1106 2.89702 41.3521 2.72656C41.5959 2.55374 41.8741 2.46733 42.1866 2.46733C42.2576 2.46733 42.3369 2.47088 42.4245 2.47798C42.5145 2.48272 42.5891 2.491 42.6483 2.50284V3.68537C42.5938 3.66643 42.5074 3.64986 42.389 3.63565C42.273 3.61908 42.1606 3.6108 42.0517 3.6108C41.8173 3.6108 41.6066 3.66169 41.4196 3.76349C41.2349 3.86293 41.0893 4.00142 40.9828 4.17898C40.8762 4.35653 40.823 4.56132 40.823 4.79332V8H39.5375ZM44.6742 6.28835L44.6706 4.73651H44.8766L46.8368 2.54545H48.339L45.9277 5.23011H45.6614L44.6742 6.28835ZM43.5023 8V0.727273H44.7878V8H43.5023ZM46.9256 8L45.15 5.51776L46.0165 4.61222L48.4632 8H46.9256ZM49.2525 8V0.727273H51.9798C52.5385 0.727273 53.0072 0.831439 53.386 1.03977C53.7672 1.24811 54.0548 1.53456 54.2489 1.89915C54.4454 2.26136 54.5437 2.6733 54.5437 3.13494C54.5437 3.60133 54.4454 4.01562 54.2489 4.37784C54.0524 4.74006 53.7624 5.02533 53.3789 5.23366C52.9954 5.43963 52.5231 5.54261 51.962 5.54261H50.1545V4.45952H51.7844C52.1112 4.45952 52.3787 4.4027 52.587 4.28906C52.7953 4.17543 52.9492 4.01918 53.0487 3.82031C53.1504 3.62145 53.2013 3.39299 53.2013 3.13494C53.2013 2.87689 53.1504 2.64962 53.0487 2.45312C52.9492 2.25663 52.7942 2.10393 52.5835 1.99503C52.3751 1.88376 52.1064 1.82812 51.7773 1.82812H50.57V8H49.2525ZM56.9167 0.727273V8H55.6312V0.727273H56.9167ZM61.7152 5.70597V2.54545H63.0007V8H61.7543V7.03054H61.6974C61.5743 7.33594 61.3719 7.5857 61.0902 7.77983C60.8108 7.97396 60.4664 8.07102 60.0568 8.07102C59.6993 8.07102 59.3833 7.99171 59.1087 7.8331C58.8364 7.67211 58.6233 7.43892 58.4695 7.13352C58.3156 6.82576 58.2386 6.45407 58.2386 6.01847V2.54545H59.5241V5.8196C59.5241 6.16525 59.6188 6.43987 59.8082 6.64347C59.9976 6.84706 60.2462 6.94886 60.554 6.94886C60.7434 6.94886 60.9268 6.9027 61.1044 6.81037C61.282 6.71804 61.4276 6.58073 61.5412 6.39844C61.6572 6.21378 61.7152 5.98295 61.7152 5.70597ZM68.6337 3.98722L67.4618 4.11506C67.4287 3.99669 67.3707 3.88542 67.2878 3.78125C67.2073 3.67708 67.0984 3.59304 66.9611 3.52912C66.8238 3.4652 66.6557 3.43324 66.4569 3.43324C66.1893 3.43324 65.9644 3.49124 65.7821 3.60724C65.6022 3.72325 65.5134 3.87358 65.5158 4.05824C65.5134 4.21686 65.5714 4.34588 65.6898 4.44531C65.8105 4.54474 66.0094 4.62642 66.2864 4.69034L67.2168 4.8892C67.7329 5.00047 68.1164 5.17685 68.3674 5.41832C68.6207 5.6598 68.7485 5.97585 68.7509 6.36648C68.7485 6.70975 68.6479 7.01278 68.449 7.27557C68.2525 7.53598 67.9791 7.73958 67.6287 7.88636C67.2783 8.03314 66.8759 8.10653 66.4213 8.10653C65.7537 8.10653 65.2163 7.96686 64.8091 7.6875C64.4019 7.40578 64.1593 7.01397 64.0811 6.51207L65.3347 6.39134C65.3915 6.63755 65.5123 6.82339 65.6969 6.94886C65.8816 7.07434 66.1219 7.13707 66.4178 7.13707C66.7232 7.13707 66.9682 7.07434 67.1529 6.94886C67.3399 6.82339 67.4334 6.66832 67.4334 6.48366C67.4334 6.32741 67.373 6.19839 67.2523 6.09659C67.1339 5.99479 66.9493 5.91667 66.6983 5.86222L65.7679 5.6669C65.2447 5.558 64.8577 5.37453 64.6067 5.11648C64.3558 4.85606 64.2315 4.52699 64.2338 4.12926C64.2315 3.79309 64.3226 3.50189 64.5073 3.25568C64.6943 3.0071 64.9535 2.81534 65.285 2.6804C65.6188 2.54309 66.0035 2.47443 66.4391 2.47443C67.0783 2.47443 67.5814 2.61056 67.9483 2.88281C68.3176 3.15507 68.5461 3.5232 68.6337 3.98722Z" fill="#1E1E1E"/>
</svg>
