<svg width="339" height="36" viewBox="0 0 339 36" fill="none" xmlns="http://www.w3.org/2000/svg">
<path d="M0.443182 35V0.0909081H6.61364V13.1477H6.86932C7.1875 12.5114 7.63636 11.8352 8.21591 11.1193C8.79545 10.392 9.57955 9.77273 10.5682 9.26136C11.5568 8.73864 12.8182 8.47727 14.3523 8.47727C16.375 8.47727 18.1989 8.99432 19.8239 10.0284C21.4602 11.0511 22.7557 12.5682 23.7102 14.5795C24.6761 16.5795 25.1591 19.0341 25.1591 21.9432C25.1591 24.8182 24.6875 27.2614 23.7443 29.2727C22.8011 31.2841 21.517 32.8182 19.892 33.875C18.267 34.9318 16.4261 35.4602 14.3693 35.4602C12.8693 35.4602 11.625 35.2102 10.6364 34.7102C9.64773 34.2102 8.85227 33.608 8.25 32.9034C7.65909 32.1875 7.19886 31.5114 6.86932 30.875H6.51136V35H0.443182ZM6.49432 21.9091C6.49432 23.6023 6.73295 25.0852 7.21023 26.358C7.69886 27.6307 8.39773 28.625 9.30682 29.3409C10.2273 30.0455 11.3409 30.3977 12.6477 30.3977C14.0114 30.3977 15.1534 30.0341 16.0739 29.3068C16.9943 28.5682 17.6875 27.5625 18.1534 26.2898C18.6307 25.0057 18.8693 23.5455 18.8693 21.9091C18.8693 20.2841 18.6364 18.8409 18.1705 17.5795C17.7045 16.3182 17.0114 15.3295 16.0909 14.6136C15.1705 13.8977 14.0227 13.5398 12.6477 13.5398C11.3295 13.5398 10.2102 13.8864 9.28977 14.5795C8.36932 15.2727 7.67045 16.2443 7.19318 17.4943C6.72727 18.7443 6.49432 20.2159 6.49432 21.9091ZM41.8253 35.5114C39.2685 35.5114 37.0526 34.9489 35.1776 33.8239C33.3026 32.6989 31.848 31.125 30.8139 29.1023C29.7912 27.0795 29.2798 24.7159 29.2798 22.0114C29.2798 19.3068 29.7912 16.9375 30.8139 14.9034C31.848 12.8693 33.3026 11.2898 35.1776 10.1648C37.0526 9.03977 39.2685 8.47727 41.8253 8.47727C44.3821 8.47727 46.598 9.03977 48.473 10.1648C50.348 11.2898 51.7969 12.8693 52.8196 14.9034C53.8537 16.9375 54.3707 19.3068 54.3707 22.0114C54.3707 24.7159 53.8537 27.0795 52.8196 29.1023C51.7969 31.125 50.348 32.6989 48.473 33.8239C46.598 34.9489 44.3821 35.5114 41.8253 35.5114ZM41.8594 30.5682C43.2457 30.5682 44.4048 30.1875 45.3366 29.4261C46.2685 28.6534 46.9616 27.6193 47.4162 26.3239C47.8821 25.0284 48.1151 23.5852 48.1151 21.9943C48.1151 20.392 47.8821 18.9432 47.4162 17.6477C46.9616 16.3409 46.2685 15.3011 45.3366 14.5284C44.4048 13.7557 43.2457 13.3693 41.8594 13.3693C40.4389 13.3693 39.2571 13.7557 38.3139 14.5284C37.3821 15.3011 36.6832 16.3409 36.2173 17.6477C35.7628 18.9432 35.5355 20.392 35.5355 21.9943C35.5355 23.5852 35.7628 25.0284 36.2173 26.3239C36.6832 27.6193 37.3821 28.6534 38.3139 29.4261C39.2571 30.1875 40.4389 30.5682 41.8594 30.5682ZM71.0284 35.5114C68.4716 35.5114 66.2557 34.9489 64.3807 33.8239C62.5057 32.6989 61.0511 31.125 60.017 29.1023C58.9943 27.0795 58.483 24.7159 58.483 22.0114C58.483 19.3068 58.9943 16.9375 60.017 14.9034C61.0511 12.8693 62.5057 11.2898 64.3807 10.1648C66.2557 9.03977 68.4716 8.47727 71.0284 8.47727C73.5852 8.47727 75.8011 9.03977 77.6761 10.1648C79.5511 11.2898 81 12.8693 82.0227 14.9034C83.0568 16.9375 83.5739 19.3068 83.5739 22.0114C83.5739 24.7159 83.0568 27.0795 82.0227 29.1023C81 31.125 79.5511 32.6989 77.6761 33.8239C75.8011 34.9489 73.5852 35.5114 71.0284 35.5114ZM71.0625 30.5682C72.4489 30.5682 73.608 30.1875 74.5398 29.4261C75.4716 28.6534 76.1648 27.6193 76.6193 26.3239C77.0852 25.0284 77.3182 23.5852 77.3182 21.9943C77.3182 20.392 77.0852 18.9432 76.6193 17.6477C76.1648 16.3409 75.4716 15.3011 74.5398 14.5284C73.608 13.7557 72.4489 13.3693 71.0625 13.3693C69.642 13.3693 68.4602 13.7557 67.517 14.5284C66.5852 15.3011 65.8864 16.3409 65.4205 17.6477C64.9659 18.9432 64.7386 20.392 64.7386 21.9943C64.7386 23.5852 64.9659 25.0284 65.4205 26.3239C65.8864 27.6193 66.5852 28.6534 67.517 29.4261C68.4602 30.1875 69.642 30.5682 71.0625 30.5682ZM94.4361 26.7841L94.419 19.3352H95.4077L104.817 8.81818H112.027L100.453 21.7045H99.1747L94.4361 26.7841ZM88.8111 35V0.0909081H94.9815V35H88.8111ZM105.243 35L96.7202 23.0852L100.879 18.7386L112.624 35H105.243ZM116.139 35V8.81818H122.037V13.267H122.344C122.889 11.767 123.793 10.5966 125.054 9.75568C126.315 8.90341 127.821 8.47727 129.571 8.47727C131.344 8.47727 132.838 8.90909 134.054 9.77273C135.281 10.625 136.145 11.7898 136.645 13.267H136.918C137.497 11.8125 138.474 10.6534 139.849 9.78977C141.236 8.91477 142.878 8.47727 144.776 8.47727C147.185 8.47727 149.151 9.23864 150.673 10.7614C152.196 12.2841 152.957 14.5057 152.957 17.4261V35H146.77V18.3807C146.77 16.7557 146.338 15.5682 145.474 14.8182C144.611 14.0568 143.554 13.6761 142.304 13.6761C140.815 13.6761 139.651 14.142 138.81 15.0739C137.98 15.9943 137.565 17.1932 137.565 18.6705V35H131.514V18.125C131.514 16.7727 131.105 15.6932 130.287 14.8864C129.48 14.0795 128.423 13.6761 127.116 13.6761C126.23 13.6761 125.423 13.9034 124.696 14.358C123.969 14.8011 123.389 15.4318 122.957 16.25C122.526 17.0568 122.31 18 122.31 19.0795V35H116.139ZM166.751 35.5284C165.092 35.5284 163.598 35.233 162.268 34.642C160.95 34.0398 159.905 33.1534 159.132 31.983C158.371 30.8125 157.99 29.3693 157.99 27.6534C157.99 26.1761 158.263 24.9545 158.808 23.9886C159.354 23.0227 160.098 22.25 161.041 21.6705C161.984 21.0909 163.047 20.6534 164.229 20.358C165.422 20.0511 166.655 19.8295 167.928 19.6932C169.462 19.5341 170.706 19.392 171.661 19.267C172.615 19.1307 173.308 18.9261 173.74 18.6534C174.183 18.3693 174.405 17.9318 174.405 17.3409V17.2386C174.405 15.9545 174.024 14.9602 173.263 14.2557C172.501 13.5511 171.405 13.1989 169.973 13.1989C168.462 13.1989 167.263 13.5284 166.376 14.1875C165.501 14.8466 164.911 15.625 164.604 16.5227L158.842 15.7045C159.297 14.1136 160.047 12.7841 161.092 11.7159C162.138 10.6364 163.416 9.82954 164.928 9.29545C166.439 8.75 168.109 8.47727 169.939 8.47727C171.2 8.47727 172.456 8.625 173.706 8.92045C174.956 9.21591 176.098 9.70454 177.132 10.3864C178.166 11.0568 178.996 11.9716 179.621 13.1307C180.257 14.2898 180.575 15.7386 180.575 17.4773V35H174.643V31.4034H174.439C174.064 32.1307 173.536 32.8125 172.854 33.4489C172.183 34.0739 171.337 34.5795 170.314 34.9659C169.303 35.3409 168.115 35.5284 166.751 35.5284ZM168.354 30.9943C169.592 30.9943 170.666 30.75 171.575 30.2614C172.484 29.7614 173.183 29.1023 173.672 28.2841C174.172 27.4659 174.422 26.5739 174.422 25.608V22.5227C174.229 22.6818 173.899 22.8295 173.433 22.9659C172.979 23.1023 172.467 23.2216 171.899 23.3239C171.331 23.4261 170.768 23.517 170.212 23.5966C169.655 23.6761 169.172 23.7443 168.763 23.8011C167.842 23.9261 167.018 24.1307 166.291 24.4148C165.564 24.6989 164.99 25.0966 164.57 25.608C164.149 26.108 163.939 26.7557 163.939 27.5511C163.939 28.6875 164.354 29.5455 165.183 30.125C166.013 30.7045 167.07 30.9943 168.354 30.9943ZM186.78 35V8.81818H192.763V13.1818H193.036C193.513 11.6705 194.331 10.5057 195.49 9.6875C196.661 8.85795 197.996 8.44318 199.496 8.44318C199.837 8.44318 200.217 8.46023 200.638 8.49432C201.07 8.51704 201.428 8.55682 201.712 8.61364V14.2898C201.45 14.1989 201.036 14.1193 200.467 14.0511C199.911 13.9716 199.371 13.9318 198.848 13.9318C197.723 13.9318 196.712 14.1761 195.814 14.6648C194.928 15.142 194.229 15.8068 193.717 16.6591C193.206 17.5114 192.95 18.4943 192.95 19.608V35H186.78ZM211.436 26.7841L211.419 19.3352H212.408L221.817 8.81818H229.027L217.453 21.7045H216.175L211.436 26.7841ZM205.811 35V0.0909081H211.982V35H205.811ZM222.243 35L213.72 23.0852L217.879 18.7386L229.624 35H222.243ZM245.318 35V0.0909081H258.409C261.091 0.0909081 263.341 0.590908 265.159 1.59091C266.989 2.59091 268.369 3.96591 269.301 5.71591C270.244 7.45454 270.716 9.43182 270.716 11.6477C270.716 13.8864 270.244 15.875 269.301 17.6136C268.358 19.3523 266.966 20.7216 265.125 21.7216C263.284 22.7102 261.017 23.2045 258.324 23.2045H249.648V18.0057H257.472C259.04 18.0057 260.324 17.733 261.324 17.1875C262.324 16.642 263.063 15.892 263.54 14.9375C264.028 13.983 264.273 12.8864 264.273 11.6477C264.273 10.4091 264.028 9.31818 263.54 8.375C263.063 7.43182 262.318 6.69886 261.307 6.17614C260.307 5.64205 259.017 5.375 257.438 5.375H251.642V35H245.318ZM282.107 0.0909081V35H275.936V0.0909081H282.107ZM305.139 23.9886V8.81818H311.31V35H305.327V30.3466H305.054C304.463 31.8125 303.491 33.0114 302.139 33.9432C300.798 34.875 299.145 35.3409 297.179 35.3409C295.463 35.3409 293.946 34.9602 292.628 34.1989C291.321 33.4261 290.298 32.3068 289.56 30.8409C288.821 29.3636 288.452 27.5795 288.452 25.4886V8.81818H294.622V24.5341C294.622 26.1932 295.077 27.5114 295.986 28.4886C296.895 29.4659 298.088 29.9545 299.565 29.9545C300.474 29.9545 301.355 29.733 302.207 29.2898C303.06 28.8466 303.759 28.1875 304.304 27.3125C304.861 26.4261 305.139 25.3182 305.139 23.9886ZM338.348 15.7386L332.723 16.3523C332.564 15.7841 332.286 15.25 331.888 14.75C331.501 14.25 330.979 13.8466 330.32 13.5398C329.661 13.233 328.854 13.0795 327.899 13.0795C326.615 13.0795 325.536 13.358 324.661 13.9148C323.797 14.4716 323.371 15.1932 323.382 16.0795C323.371 16.8409 323.649 17.4602 324.217 17.9375C324.797 18.4148 325.751 18.8068 327.081 19.1136L331.547 20.0682C334.024 20.6023 335.865 21.4489 337.07 22.608C338.286 23.767 338.899 25.2841 338.911 27.1591C338.899 28.8068 338.416 30.2614 337.462 31.5227C336.518 32.7727 335.206 33.75 333.524 34.4545C331.842 35.1591 329.911 35.5114 327.729 35.5114C324.524 35.5114 321.945 34.8409 319.99 33.5C318.036 32.1477 316.871 30.267 316.496 27.858L322.513 27.2784C322.786 28.4602 323.365 29.3523 324.251 29.9545C325.138 30.5568 326.291 30.858 327.712 30.858C329.178 30.858 330.354 30.5568 331.24 29.9545C332.138 29.3523 332.587 28.608 332.587 27.7216C332.587 26.9716 332.297 26.3523 331.717 25.8636C331.149 25.375 330.263 25 329.058 24.7386L324.592 23.8011C322.081 23.2784 320.223 22.3977 319.018 21.1591C317.814 19.9091 317.217 18.3295 317.229 16.4205C317.217 14.8068 317.655 13.4091 318.541 12.2273C319.439 11.0341 320.683 10.1136 322.274 9.46591C323.876 8.80682 325.723 8.47727 327.814 8.47727C330.882 8.47727 333.297 9.13068 335.058 10.4375C336.831 11.7443 337.928 13.5114 338.348 15.7386Z" fill="#1E1E1E"/>
</svg>
